# xmcd
#
# Track frame offsets:
#	150
#	15388
#	32210
#	46984
#	59055
#	75757
#	90354
#	102987
#	117062
#	127653
#	143504
#	161635
#	172451
#	190290
#	203227
#	214665
#
# Disc length: 3057 seconds
#
# Revision: 0
# Processed by: cddbd v1.4PL0 Copyright (c) Steve Scherf et al.
# Submitted via: EasyCDDAExtractor 4.6.9.1
#
DISCID=cf0bef10
DTITLE=Art and Stephanie Stevenson - The Winding Stream
DYEAR=2002
DGENRE=Bluegrass
TTITLE0=Maple On The Hill
TTITLE1=Your Selfish Heart
TTITLE2=Weapon Of Prayer
TTITLE3=You'll Be Rewarded Over There
TTITLE4=Your Lone Journey
TTITLE5=On The Mississippi Shore
TTITLE6=The Winding Stream
TTITLE7=Half As Much
TTITLE8=What A Time In Heaven
TTITLE9=Call Me Your Sweetheart
TTITLE10=Someday Soon
TTITLE11=When The Saints Go Marching In
TTITLE12=My Carolina Home
TTITLE13=Where The Soul Of Man Never Dies
TTITLE14=When Our Lord Shall Come Again
TTITLE15=Stormy Waters
EXTD=
EXTT0=
EXTT1=
EXTT2=
EXTT3=
EXTT4=
EXTT5=
EXTT6=
EXTT7=
EXTT8=
EXTT9=
EXTT10=
EXTT11=
EXTT12=
EXTT13=
EXTT14=
EXTT15=
PLAYORDER=
